<?xml version="1.0" encoding="UTF-8"?>
<svg width="700pt" height="700pt" version="1.1" viewBox="0 0 700 700" xmlns="http://www.w3.org/2000/svg">
  <path d="m577.5 262.5c-4.6406 0-9.0938 1.8438-12.375 5.125s-5.125 7.7344-5.125 12.375v70c-0.023438 18.336-7.2344 35.93-20.094 49-12.855 13.074-30.324 20.578-48.656 20.906s-36.062-6.5508-49.375-19.156c8.6445-15.516 13.164-32.988 13.125-50.75v-70c0-13.926 5.5312-27.277 15.375-37.125 9.8477-9.8438 23.199-15.375 37.125-15.375 6.0664-0.019531 11.688-3.1758 14.863-8.3438 3.1719-5.1719 3.4414-11.613 0.71094-17.031-56.176-112.52-112.88-167.12-173.07-167.12s-116.9 54.602-173.07 167.12c-2.7305 5.418-2.4609 11.859 0.71094 17.031 3.1758 5.168 8.7969 8.3242 14.863 8.3438 13.926 0 27.277 5.5312 37.125 15.375 9.8438 9.8477 15.375 23.199 15.375 37.125v70c0.019531 17.621 4.4727 34.953 12.949 50.398-12.887 12.426-30.047 19.441-47.949 19.602-18.566 0-36.371-7.375-49.496-20.504-13.129-13.125-20.504-30.93-20.504-49.496v-70c0-6.2539-3.3359-12.031-8.75-15.156s-12.086-3.125-17.5 0-8.75 8.9023-8.75 15.156v70c0 27.848 11.062 54.555 30.754 74.246s46.398 30.754 74.246 30.754c25.84-0.14062 50.738-9.7266 70-26.949 8.793 7.832 18.773 14.211 29.574 18.898-6.9258 16.68-20.031 30.035-36.574 37.277-5.0039 2.1289-8.7305 6.4648-10.09 11.727-1.3555 5.2656-0.19141 10.863 3.1562 15.148 3.3477 4.2812 8.4961 6.7695 13.934 6.7227 2.3984-0.042969 4.7695-0.51562 7-1.3984 26.652-11.707 47.25-33.953 56.875-61.426h12.25c9.543 27.605 30.148 49.988 56.875 61.773 2.2305 0.88672 4.6016 1.3594 7 1.4023 5.4375 0.042969 10.586-2.4414 13.934-6.7266 3.3477-4.2852 4.5117-9.8789 3.1562-15.145-1.3594-5.2656-5.0859-9.5977-10.09-11.73-16.543-7.2422-29.648-20.598-36.574-37.273 10.891-4.6719 20.895-11.184 29.574-19.25 20.234 18.098 46.695 27.656 73.824 26.668 27.133-0.98828 52.824-12.449 71.688-31.973 18.863-19.523 29.434-45.598 29.488-72.746v-70c0-4.6406-1.8438-9.0938-5.125-12.375s-7.7344-5.125-12.375-5.125zm-96.602-65.801c-10.125 3.25-19.562 8.3516-27.824 15.051-3.3281-32.559-11.586-64.426-24.5-94.5 20.172 24.582 37.707 51.211 52.324 79.449zm-262.5 0c14.676-28.246 32.27-54.875 52.5-79.449-12.91 30.074-21.172 61.941-24.5 94.5-8.1016-6.6406-17.355-11.742-27.297-15.051zm131.6 223.3c-18.566 0-36.371-7.375-49.496-20.504-13.129-13.125-20.504-30.93-20.504-49.496v-102.55c-0.1875-43.809 9.4375-87.102 28.176-126.7 18.375-37.449 33.949-50.75 41.824-50.75 4.1992 0 19.074 5.6016 41.125 50.75 18.977 39.543 28.844 82.84 28.875 126.7v102.55c0 18.566-7.375 36.371-20.504 49.496-13.125 13.129-30.93 20.504-49.496 20.504zm-22.574-82.426c3.3125 3.2852 5.1758 7.7578 5.1758 12.426s-1.8633 9.1406-5.1758 12.426c-1.6641 1.5938-3.6289 2.8398-5.7773 3.6758-2.1016 0.89453-4.3633 1.3711-6.6484 1.3984h-3.5l-3.1484-1.0508c-1.1172-0.38281-2.1758-0.91016-3.1523-1.5742l-2.625-2.1016c-3.3633-3.3867-5.1953-8-5.0742-12.773 0.027344-2.2852 0.50391-4.5469 1.3984-6.6484 0.83594-2.1484 2.082-4.1133 3.6758-5.7773l2.625-2.1016v0.003906c0.97656-0.66406 2.0352-1.1953 3.1523-1.5781l3.1484-1.3984c3.4141-0.66797 6.9453-0.30078 10.148 1.0508 2.1797 0.9375 4.1445 2.3047 5.7773 4.0234zm70 0c3.3086 3.2852 5.1719 7.75 5.1758 12.41 0.003907 4.6641-1.8516 9.1328-5.1562 12.422-3.3047 3.2891-7.7852 5.1211-12.445 5.0938h-3.5l-3.1484-1.0508c-1.1172-0.38281-2.1758-0.91016-3.1523-1.5742l-2.625-2.1016c-3.3633-3.3867-5.1953-8-5.0742-12.773 0.027344-2.2852 0.50391-4.5469 1.3984-6.6484 0.83594-2.1484 2.082-4.1133 3.6758-5.7773l2.625-2.1016v0.003906c0.97656-0.66406 2.0352-1.1953 3.1523-1.5781l3.1484-1.3984c5.8242-1.1172 11.82 0.79297 15.926 5.0742z"/>
</svg>
